<?xml version="1.0" encoding="UTF-8"?>
<svg id="Layer_1" data-name="Layer 1" xmlns="http://www.w3.org/2000/svg" viewBox="0 0 200 200">
  <defs>
    <style>
      .cls-1 {
        fill: #ff931e;
      }

      .cls-2 {
        fill: #ff7bac;
      }
    </style>
  </defs>
  <path class="cls-1" d="M126.08,75.36c-9.56,0-18.5,2.73-26.08,7.45-7.58-4.72-16.52-7.45-26.08-7.45-27.29,0-49.49,22.2-49.49,49.49s22.2,49.49,49.49,49.49c9.56,0,18.5-2.73,26.08-7.45,7.58,4.72,16.52,7.45,26.08,7.45,27.29,0,49.49-22.2,49.49-49.49s-22.2-49.49-49.49-49.49ZM100,140.83c-2.86-4.65-4.52-10.13-4.52-15.98s1.66-11.33,4.52-15.98c2.86,4.65,4.52,10.13,4.52,15.98s-1.66,11.33-4.52,15.98ZM43.32,124.85c0-16.87,13.73-30.6,30.6-30.6,4.1,0,8.01.82,11.59,2.29-5.62,8.03-8.92,17.79-8.92,28.31s3.3,20.28,8.92,28.31c-3.58,1.47-7.49,2.29-11.59,2.29-16.87,0-30.6-13.73-30.6-30.6ZM126.08,155.44c-4.1,0-8.01-.82-11.59-2.29,5.62-8.03,8.92-17.79,8.92-28.31s-3.3-20.28-8.92-28.31c3.58-1.47,7.49-2.29,11.59-2.29,16.87,0,30.6,13.73,30.6,30.6s-13.73,30.6-30.6,30.6Z"/>
  <path class="cls-2" d="M97.98,73.29c.86.6,2.93.49,3.83-.15,5.14-3.65,10.37-7.24,15.03-11.44,6.67-6,11.21-13.21,10.25-22.83-.54-5.35-5.02-11.03-10.1-12.44-7.12-1.99-12.65.39-17.26,6.37-2.58-3.49-5.61-5.9-9.67-6.77-8.52-1.83-15.72,3.55-17.38,11.59-1.49,7.22.93,13.43,5.21,19.08,5.38,7.1,12.94,11.62,20.08,16.6Z"/>
</svg>