<?xml version="1.0" encoding="UTF-8"?>
<svg id="Layer_1" data-name="Layer 1" xmlns="http://www.w3.org/2000/svg" viewBox="0 0 200 200">
  <defs>
    <style>
      .cls-1 {
        fill: #3fa9f5;
      }
    </style>
  </defs>
  <path class="cls-1" d="M169.51,40.58c0-5.53-4.03-9.67-9.51-9.69-14.24-.04-28.47-.03-42.71,0-4.55,0-8.28,2.91-9.38,7.14-1.11,4.27.62,8.81,4.52,10.93,1.55.85,3.48,1.33,5.25,1.39,5.74.17,11.48.06,17.82.06-.68.88-.95,1.33-1.31,1.69-7.1,7.03-18.36,18.11-25.4,25.2-.64.64-1.16.94-1.71.95-7.79-5.12-17.1-8.1-27.1-8.1-27.29,0-49.49,22.2-49.49,49.49s22.2,49.49,49.49,49.49,49.49-22.2,49.49-49.49c0-9.89-2.92-19.11-7.93-26.84.1-.49.43-.95.98-1.49,7.2-7.03,18.42-18.25,25.57-25.32.44-.43.96-.77,1.91-1.52,0,1.34,0,2.07,0,2.8,0,5.27-.05,10.54.02,15.81.08,5.65,4.38,9.7,10.07,9.64,5.28-.06,9.44-4.37,9.44-9.84,0-14.1,0-28.2-.01-42.3ZM79.96,150.24c-16.87,0-30.6-13.73-30.6-30.6s13.73-30.6,30.6-30.6,30.6,13.73,30.6,30.6-13.73,30.6-30.6,30.6Z"/>
</svg>