<?xml version="1.0" encoding="UTF-8"?>
<svg id="Layer_1" data-name="Layer 1" xmlns="http://www.w3.org/2000/svg" viewBox="0 0 200 200">
  <defs>
    <style>
      .cls-1 {
        fill: #ff931e;
      }
    </style>
  </defs>
  <path class="cls-1" d="M109.82,132.87c.1-4.74.11-15.43.02-21.08,22.59-4.58,39.65-24.59,39.65-48.5,0-27.29-22.2-49.49-49.49-49.49s-49.49,22.2-49.49,49.49c0,23.87,16.99,43.85,39.51,48.48-.06,6.11-.05,16.36.02,21.18l.02,23.9c-.11,6.23-.09,12.46-.03,18.68.04,4.36,1.65,7.94,5.86,9.75,3.68,1.58,7.24,1.16,10.39-1.42,2.65-2.16,3.53-5.13,3.54-8.4.03-6.16.08-12.32-.03-18.48v-24.1ZM69.4,63.29c0-16.87,13.73-30.6,30.6-30.6s30.6,13.73,30.6,30.6-13.73,30.6-30.6,30.6-30.6-13.73-30.6-30.6Z"/>
</svg>