<?xml version="1.0" encoding="UTF-8"?>
<svg id="Layer_1" data-name="Layer 1" xmlns="http://www.w3.org/2000/svg" xmlns:xlink="http://www.w3.org/1999/xlink" viewBox="0 0 200 200">
  <defs>
    <style>
      .cls-1 {
        fill: url(#linear-gradient);
      }
    </style>
    <linearGradient id="linear-gradient" x1="41.74" y1="100" x2="209.93" y2="100" gradientUnits="userSpaceOnUse">
      <stop offset="0" stop-color="#ff7bac"/>
      <stop offset=".08" stop-color="#e880b4"/>
      <stop offset=".38" stop-color="#a091cf"/>
      <stop offset=".62" stop-color="#6b9ee3"/>
      <stop offset=".8" stop-color="#4ba6f0"/>
      <stop offset=".9" stop-color="#3fa9f5"/>
    </linearGradient>
  </defs>
  <path class="cls-1" d="M65.2,75.93c-2.24-2.23-4.38-4.57-6.69-6.73-6.86-6.46-14.93-8.51-23.86-5.53-8.98,3-14.41,9.46-15.82,18.87-2.11,14.11,8.66,26.71,22.94,26.88,6.49.08,12.18-2.23,16.82-6.86,14.08-14.06,28.17-28.11,42.2-42.22,6.3-6.34,13.75-10.33,22.66-11.32,8.52-.94,16.55.71,23.86,5.3,1.04.66,1.65.69,2.57-.24,5.25-5.28,13.64-13.55,18.94-18.78.27-.27.47-.6.98-1.26-4.72,0-9,.08-13.28-.05-1.32-.04-2.76-.4-3.91-1.03-2.91-1.58-4.2-4.96-3.37-8.15.82-3.15,3.6-5.31,6.99-5.32,10.61-.02,21.22-.02,31.84,0,4.09.01,7.09,3.1,7.09,7.22.01,10.51.02,21.02.01,31.53,0,4.08-3.1,7.29-7.04,7.34-4.25.05-7.45-2.97-7.51-7.18-.06-3.93-.02-7.86-.02-11.78,0-.55,0-1.09,0-2.09-.71.56-1.1.81-1.43,1.13-5.33,5.27-13.7,13.63-19.06,18.87-.88.86-.99,1.45-.33,2.56,13.11,22.11-.02,50.93-25.34,55.34-12.76,2.23-26.95-4.48-36.24-13.57.24-.2,9.73-9.38,9.92-9.4,6.71,6.31,17.63,11.55,26.48,8.86,8.72-2.66,14.09-8.7,16.15-17.57,3.19-13.74-7.21-27.42-21.36-28.27-7.14-.43-13.25,1.88-18.28,6.89-14.07,14-28.11,28.03-42.1,42.1-5.51,5.55-11.95,9.3-19.65,10.8-1.06.21-1.51.63-1.48,1.8.08,3.82.08,12.86,0,16.68-.03,1.25.43,1.55,1.59,1.54,4.9-.05,9.8-.03,14.69,0,3.81.02,6.69,2.72,7.26,6.72.45,3.16-1.89,6.6-5.21,7.56-.77.22-1.61.27-2.41.27-4.69.02-9.39.07-14.08-.03-1.52-.03-1.88.47-1.86,1.91.08,4.59.05,9.18.02,13.77-.01,2.44-.67,4.65-2.64,6.26-2.35,1.92-5.01,2.24-7.75,1.06-3.14-1.35-4.34-4.02-4.37-7.27-.04-4.64-.06-9.29.02-13.93.03-1.41-.39-1.83-1.8-1.81-4.79.08-9.59.05-14.39.03-4.15-.02-7.34-3.12-7.41-7.17-.07-3.98,3.3-7.36,7.41-7.39,4.9-.03,9.8-.04,14.69,0,1.14.01,1.5-.34,1.48-1.49-.06-4.08-.06-13.37,0-17.45.02-1.08-.4-1.46-1.38-1.78-13.85-4.45-22.71-13.69-26.02-27.88-4.64-19.91,8.9-40.52,28.98-44.2,12.99-2.38,24.32,1.04,33.78,10.34,2.15,2.11,4.27,4.24,6.38,6.39"/>
</svg>