<?xml version="1.0" encoding="UTF-8"?>
<svg id="Layer_1" data-name="Layer 1" xmlns="http://www.w3.org/2000/svg" viewBox="0 0 200 200">
  <defs>
    <style>
      .cls-1 {
        fill: #ff7bac;
      }
    </style>
  </defs>
  <path class="cls-1" d="M131.66,134.93c-6.57-.04-13.14-.05-19.71,0-1.56.01-2.16-.39-2.13-2.07.1-4.74.11-15.43.02-21.08,22.59-4.58,39.65-24.59,39.65-48.5,0-27.29-22.2-49.49-49.49-49.49s-49.49,22.2-49.49,49.49c0,23.87,16.99,43.85,39.51,48.48-.06,6.11-.05,16.36.02,21.18.02,1.53-.46,2.01-1.99,1.99-6.57-.06-13.14-.04-19.71,0-5.52.03-10.04,4.57-9.94,9.91.1,5.43,4.38,9.6,9.95,9.62,6.43.02,12.87.07,19.3-.04,1.89-.03,2.45.54,2.42,2.43-.11,6.23-.09,12.46-.03,18.68.04,4.36,1.65,7.94,5.86,9.75,3.68,1.58,7.24,1.16,10.39-1.42,2.65-2.16,3.53-5.13,3.54-8.4.03-6.16.08-12.32-.03-18.48-.04-1.93.45-2.6,2.49-2.56,6.29.14,12.59.07,18.89.04,1.08,0,2.21-.06,3.24-.36,4.45-1.29,7.59-5.91,6.98-10.14-.76-5.37-4.63-8.99-9.74-9.01ZM69.4,63.29c0-16.87,13.73-30.6,30.6-30.6s30.6,13.73,30.6,30.6-13.73,30.6-30.6,30.6-30.6-13.73-30.6-30.6Z"/>
</svg>